# xmcd
#
# Track frame offsets:
#	150
#	17520
#	35503
#	51007
#	78111
#	93860
#	116170
#	135464
#	153511
#	171345
#	189361
#	213141
#	229234
#	243877
#	263329
#	285882
#
# Disc length: 4132 seconds
#
# Revision: 0
# Processed by: cddbd v1.5.2PL0 Copyright (c) Steve Scherf et al.
# Submitted via: EasyCDDAExtractor 10.0.5.1
#
DISCID=be102210
DTITLE=Various Artist - Ware House Party
DYEAR=1995
DGENRE=House
TTITLE0=Bliss Team - You Make Me Cry
TTITLE1=Imperio - Quo Vadis
TTITLE2=Donn-Ah - 99 Red Baloons
TTITLE3=Alexandra - It's a Friday Night (Te Quiero)
TTITLE4=Just Luis - American Pie
TTITLE5=2 Colors - Music Of My Life
TTITLE6=DJ Bobo - Freedom
TTITLE7=Papo Furado - Mosca Na Sopa
TTITLE8=Ofra Haza - Mata Hari
TTITLE9=Double Dee - Found Love
TTITLE10=Sparks - When I Kiss You
TTITLE11=X-Bass feat. DJ Ceratti and F. Gomez - Love My Body
TTITLE12=Herbie - Right Type Of Mood
TTITLE13=Señor X - Tainted Love
TTITLE14=Whykiky - Don't Give It Up
TTITLE15=T.R.I.X. - Run Baby Run
EXTD=
EXTT0=
EXTT1=
EXTT2=
EXTT3=
EXTT4=
EXTT5=
EXTT6=
EXTT7=
EXTT8=
EXTT9=
EXTT10=
EXTT11=
EXTT12=
EXTT13=
EXTT14=
EXTT15=
PLAYORDER=
